<svg width="20" height="20" viewBox="0 0 20 20" fill="none" xmlns="http://www.w3.org/2000/svg">
<g clip-path="url(#clip0)">
<path d="M13.8462 13.6603V16.2495C13.8462 17.0449 13.1992 17.6919 12.4038 17.6919H3.75C2.95462 17.6919 2.30769 17.0449 2.30769 16.2495V7.5957C2.30769 6.80032 2.95462 6.1534 3.75 6.1534H6.38769L8.69616 3.8457H3.75C1.67846 3.8457 0 5.52416 0 7.5957V16.2495C0 18.3211 1.67846 19.9995 3.75 19.9995H12.4038C14.4754 19.9995 16.1538 18.3211 16.1538 16.2495V11.3519L13.8462 13.6603Z" fill="#030104"/>
<path d="M17.3705 4.02239e-05H9.47898C8.02821 0.00157869 8.12898 0.392348 8.89436 1.15696L11.3713 3.63389L7.12513 7.87927C6.24436 8.75927 6.24513 10.1854 7.12513 11.0647L8.97898 12.9193C9.85898 13.797 11.2836 13.7977 12.1636 12.9185L16.4097 8.67235L18.8405 11.1031C19.6874 11.9493 19.9997 11.9716 19.9997 10.5208L20.0005 2.63004C19.9997 -0.0138061 20.019 -0.000729007 17.3705 4.02239e-05Z" fill="#030104"/>
</g>
<defs>
<clipPath id="clip0">
<rect width="20" height="20" fill="white"/>
</clipPath>
</defs>
</svg>
